<svg width="100" height="100" viewBox="0 0 100 100" fill="none" xmlns="http://www.w3.org/2000/svg">
<path d="M100 50C100 77.6142 77.6142 100 50 100C22.3858 100 0 77.6142 0 50C0 22.3858 22.3858 0 50 0C77.6142 0 100 22.3858 100 50Z" fill="white"/>
<path d="M85 69.7888C82.381 70.4548 80.761 69.818 79.3075 67.6355L68.971 53.3346L67.477 51.3545L55.4058 67.6828C54.0265 69.647 52.5798 70.502 50.0058 69.8068L65.4632 49.0573L51.0723 30.3148C53.5472 29.8333 55.2572 30.0785 56.776 32.2948L67.4973 46.7736L78.2972 32.3736C79.681 30.4093 81.1682 29.6623 83.6522 30.3868L78.0723 37.7848L70.5123 47.6285C69.6123 48.7535 69.736 49.5231 70.564 50.6098L85 69.7888ZM13.018 48.7108L14.2825 42.4918C17.725 30.1843 31.8325 25.07 41.5615 32.6751C47.2472 37.1481 48.6603 43.475 48.379 50.5625H16.33C15.8485 63.32 25.0308 71.0196 36.7375 67.091C40.8438 65.7118 43.2625 62.4966 44.473 58.4736C45.0872 56.4576 46.1042 56.1425 47.9987 56.7185C47.0312 61.7495 44.8487 65.9525 40.2362 68.5828C33.3445 72.5203 23.5075 71.2468 18.3325 65.7748C15.25 62.6 13.9765 58.577 13.405 54.275C13.315 53.564 13.135 52.8868 13 52.205C13.012 51.041 13.018 49.8771 13.018 48.7131V48.7108ZM16.3885 47.8558H45.3505C45.1615 38.6308 39.4172 32.0788 31.567 32.0226C22.9495 31.9551 16.762 38.3518 16.3885 47.8558Z" fill="black"/>
</svg>
