<svg width="100" height="100" viewBox="0 0 100 100" fill="none" xmlns="http://www.w3.org/2000/svg">
<path d="M34.5 100C44.16 100 52 92.608 52 83.5V67H34.5C24.84 67 17 74.392 17 83.5C17 92.608 24.84 100 34.5 100Z" fill="#0ACF83"/>
<path d="M17 50C17 40.616 24.84 33 34.5 33H52V67H34.5C24.84 67 17 59.384 17 50Z" fill="#A259FF"/>
<path d="M17 16.5C17 7.392 24.84 0 34.5 0H52V33H34.5C24.84 33 17 25.608 17 16.5Z" fill="#F24E1E"/>
<path d="M52 0H69C78.384 0 86 7.392 86 16.5C86 25.608 78.384 33 69 33H52V0Z" fill="#FF7262"/>
<path d="M86 50C86 59.384 78.384 67 69 67C59.616 67 52 59.384 52 50C52 40.616 59.616 33 69 33C78.384 33 86 40.616 86 50Z" fill="#1ABCFE"/>
</svg>
