<svg width="40" height="39" viewBox="0 0 40 39" fill="none" xmlns="http://www.w3.org/2000/svg">
<ellipse cx="20" cy="19.5" rx="20" ry="19.5" fill="white"/>
<path d="M6 25.3888C8.083 28.9856 11.3734 31.7536 15.2947 33.0992C16.1508 33.2605 16.4628 32.7159 16.4628 32.2482C16.4628 32.0545 16.4596 31.7123 16.4554 31.2545C16.4505 30.7242 16.4442 30.0387 16.4397 29.249C11.6801 30.3144 10.6758 26.8844 10.6758 26.8844C9.89745 24.8478 8.77556 24.3053 8.77556 24.3053C7.22194 23.2107 8.89321 23.2323 8.89321 23.2323C10.6107 23.3579 11.5141 25.0502 11.5141 25.0502C13.0404 27.7451 15.5195 26.9666 16.4943 26.5162C16.6498 25.3761 17.091 24.5987 17.5805 24.1581C13.781 23.7131 9.7861 22.1994 9.7861 15.4411C9.7861 13.516 10.4531 11.9417 11.5477 10.7085C11.3712 10.2624 10.784 8.46941 11.7147 6.04087C11.7147 6.04087 13.1518 5.56664 16.4208 7.84902C17.7853 7.45815 19.2496 7.26218 20.7045 7.25569C22.1573 7.26218 23.6216 7.45815 24.9883 7.84902C28.2552 5.56664 29.689 6.04087 29.689 6.04087C30.6229 8.46941 30.0357 10.2624 29.8592 10.7085C30.9559 11.9417 31.6187 13.516 31.6187 15.4411C31.6187 22.2167 27.6176 23.7076 23.8055 24.144C24.42 24.6886 24.9673 25.7648 24.9673 27.4106C24.9673 28.9869 24.9579 30.3599 24.9516 31.2694C24.9486 31.7199 24.9462 32.0567 24.9462 32.2482C24.9462 32.7202 25.254 33.2692 26.1228 33.097C29.2466 32.0223 31.9696 30.0453 34 27.4658C30.8628 31.4522 26.072 34 20.704 34C14.4537 34 8.98619 30.546 6 25.3888Z" fill="black"/>
</svg>
