<svg width="100" height="100" viewBox="0 0 100 100" fill="none" xmlns="http://www.w3.org/2000/svg">
<path d="M2 0H98.242V100H2V0Z" fill="#F7DF1E"/>
<path d="M27.3058 83.567L34.6709 78.9358C36.0917 81.5534 37.3843 83.7682 40.4846 83.7682C43.4565 83.7682 45.3302 82.5602 45.3302 77.8618V45.9094H54.3745V77.9947C54.3745 87.728 48.8835 92.1583 40.8724 92.1583C33.6373 92.1583 29.4374 88.2648 27.3056 83.5662" fill="black"/>
<path d="M59.2868 82.5604L66.651 78.13C68.5896 81.4196 71.1091 83.8359 75.5665 83.8359C79.314 83.8359 81.7037 81.8891 81.7037 79.204C81.7037 75.9819 79.2489 74.8407 75.1142 72.9618L72.8537 71.9542C66.3284 69.0683 61.9998 65.4435 61.9998 57.791C61.9998 50.7428 67.168 45.3724 75.2437 45.3724C80.9935 45.3724 85.1281 47.4535 88.0995 52.8908L81.0577 57.5894C79.5071 54.7032 77.8279 53.5623 75.2439 53.5623C72.5951 53.5623 70.9153 55.3075 70.9153 57.5894C70.9153 60.4088 72.5951 61.5502 76.4709 63.2956L78.7318 64.3024C86.4197 67.7261 90.7483 71.2162 90.7483 79.0697C90.7483 87.5281 84.3527 92.1594 75.7605 92.1594C67.3621 92.1594 61.9353 87.9978 59.287 82.5604" fill="black"/>
</svg>
