<svg width="40" height="40" viewBox="0 0 40 40" fill="none" xmlns="http://www.w3.org/2000/svg">
<circle cx="20" cy="20" r="20" fill="white"/>
<path fill-rule="evenodd" clip-rule="evenodd" d="M14.5577 11.1938C14.5577 12.3898 13.6528 13.3577 12.2376 13.3577C10.8776 13.3577 9.97263 12.3898 10.0006 11.1938C9.97263 9.93971 10.8775 9 12.2647 9C13.6528 9 14.5306 9.93971 14.5577 11.1938ZM10.1144 28.9981V15.0672H14.4168V28.9973H10.1144V28.9981Z" fill="black"/>
<path fill-rule="evenodd" clip-rule="evenodd" d="M17.8652 19.513C17.8652 17.7754 17.8084 16.2941 17.7515 15.069H21.4885L21.6871 16.9775H21.7721C22.3383 16.0941 23.7535 14.7563 26.0465 14.7563C28.8768 14.7563 31 16.6367 31 20.7372V29H26.6976V21.2797C26.6976 19.484 26.0753 18.2598 24.5184 18.2598C23.329 18.2598 22.6219 19.0859 22.3392 19.8829C22.2254 20.1683 22.1694 20.5663 22.1694 20.9662V29H17.867V19.513H17.8652Z" fill="black"/>
</svg>
