<svg width="100" height="100" viewBox="0 0 100 100" fill="none" xmlns="http://www.w3.org/2000/svg">
<path d="M69.8839 39.7447C64.9995 17.1204 54.8058 11.0959 52.2191 6.83723C50.8133 4.52062 49.3798 1 49.3798 1C49.2396 3.00669 48.9911 4.27759 47.3602 5.80268C44.0939 8.85953 30.2135 20.7347 29.0476 46.4426C27.9603 70.4114 45.8247 85.194 48.199 86.7213C50.0126 87.6577 52.234 86.7391 53.2958 85.8807C61.9053 79.6733 73.6832 63.1226 69.8733 39.7447" fill="#10AA50"/>
<path d="M50.1203 73.9541C49.6722 79.8894 49.3494 83.3432 48.209 86.7278C48.209 86.7278 48.9608 92.3755 49.4832 98.3599H51.3457C51.7903 94.145 52.4689 89.961 53.378 85.8292C50.9655 84.5873 50.2116 79.1603 50.1203 73.9541Z" fill="#B8C4C2"/>
<path d="M53.3759 85.8335C50.9379 84.6518 50.2328 79.1156 50.1245 73.9539C50.7252 65.444 50.8988 56.9067 50.6448 48.3776C50.5174 43.9027 50.7085 6.92385 49.5957 1.51025C50.0459 2.56934 51.1332 5.05763 52.2206 6.83467C54.8178 11.0955 65.003 17.1201 69.8832 39.7466C73.6867 63.0643 61.9789 79.5861 53.3759 85.8335Z" fill="#12924F"/>
</svg>
