<svg width="100" height="100" viewBox="0 0 100 100" fill="none" xmlns="http://www.w3.org/2000/svg">
<path d="M53.5135 1.06686C51.0838 -0.358823 47.9163 -0.352413 45.4844 1.06686C42.4871 2.79268 39.4897 4.51863 36.4923 6.24459C27.3101 11.5319 18.1276 16.8194 8.94392 22.1038C6.57356 23.4048 4.9748 26.0606 5.0003 28.8173V71.1885C4.98318 73.9989 6.66438 76.6804 9.09587 77.9636C10.4159 78.6963 11.7218 79.4571 13.0276 80.2178C15.183 81.4735 17.3381 82.729 19.5564 83.8579C23.6712 85.9674 28.8192 86.434 32.9843 84.234C36.3652 82.4105 37.8669 78.3554 37.8627 74.6286C37.8799 65.7966 37.877 56.9644 37.8742 48.1323C37.8725 42.9806 37.8708 37.8289 37.8731 32.6773C37.9535 32.0558 37.5064 31.3916 36.8567 31.4065C35.3002 31.3809 33.7416 31.3916 32.1851 31.4022C31.5969 31.3442 31.023 31.8538 31.0673 32.4707C31.0564 39.7481 31.058 47.0266 31.0597 54.3055C31.0612 60.9229 31.0627 67.5406 31.0548 74.1577C31.0886 76.0799 29.8441 77.9273 28.0686 78.5766C26.0566 79.3444 23.8144 78.7489 21.9883 77.7467C20.8912 77.115 19.794 76.4841 18.6967 75.8531C16.5517 74.6198 14.4068 73.3864 12.2637 72.1473C12.0489 72.0435 11.8705 71.8751 11.7525 71.6647C11.6345 71.4544 11.5825 71.2123 11.6035 70.9709C11.6035 66.311 11.6037 61.6511 11.604 56.9913C11.6044 47.6718 11.6049 38.3526 11.6035 29.0345C11.5445 28.4711 11.8774 27.9636 12.3734 27.7335C19.1279 23.8545 25.8806 19.9701 32.6334 16.0855C38.0168 12.9888 43.4003 9.89196 48.785 6.79773C48.9957 6.65093 49.2451 6.57257 49.5003 6.57295C49.7556 6.57333 50.0047 6.65243 50.215 6.79986C55.5763 9.87964 60.9367 12.9612 66.2971 16.0427C73.0743 19.9387 79.8516 23.8347 86.6309 27.7274C87.1286 27.9572 87.4472 28.4732 87.3965 29.0345C87.3958 34.119 87.3961 39.2039 87.3965 44.2888C87.3971 53.1823 87.3977 62.076 87.3923 70.9688C87.4283 71.4634 87.1834 71.9428 86.7405 72.1601C80.4871 75.7655 74.2292 79.3631 67.9711 82.9608C62.2664 86.2404 56.5616 89.5201 50.8602 92.8056C50.7867 92.8474 50.7114 92.8924 50.6346 92.9384C50.1147 93.2497 49.5258 93.6022 48.9432 93.2593C47.1481 92.2234 45.3655 91.1643 43.5831 90.1054C42.2536 89.3156 40.9243 88.5258 39.59 87.7457C39.2504 87.5246 38.818 87.4298 38.4638 87.677C38.379 87.7236 38.2941 87.7703 38.2093 87.8171C36.893 88.542 35.5704 89.2704 34.1381 89.7348C33.9559 89.8101 33.7624 89.8708 33.5678 89.9319C33.0393 90.0979 32.5026 90.2665 32.162 90.7346C32.5791 91.3184 33.1929 91.6664 33.8008 92.011C33.9612 92.102 34.1212 92.1927 34.2771 92.2874C35.9421 93.2705 37.6083 94.2518 39.2746 95.2331C41.2642 96.4048 43.2539 97.5766 45.2417 98.7516C47.6463 100.317 50.8773 100.429 53.3595 98.9816C59.1327 95.6623 64.905 92.3411 70.6775 89.0198C77.085 85.3331 83.4926 81.6463 89.9021 77.9618C92.3273 76.6715 94.0168 74.0007 93.9997 71.1881V28.8173C94.0231 26.1166 92.4855 23.5081 90.1868 22.1878C83.029 18.0608 75.8691 13.939 68.7092 9.8171C63.6438 6.901 58.5783 3.98488 53.5135 1.06686Z" fill="#539E43"/>
<path d="M71.893 32.8794C67.1121 30.2108 61.4244 30.0687 56.1115 30.4173C52.2734 30.813 48.2365 31.9182 45.4399 34.7888C42.5718 37.6747 41.9476 42.3346 43.3099 46.102C44.2862 48.7638 46.7435 50.4951 49.2847 51.4108C52.5584 52.6164 55.9964 52.9892 59.4356 53.3622C62.5726 53.7023 65.7105 54.0426 68.7255 55.015C69.9572 55.441 71.3914 56.0924 71.7687 57.4903C72.1169 59.1461 71.7351 61.0707 70.4466 62.2211C68.1309 64.1334 64.9907 64.2694 62.1203 64.3937C61.9632 64.4005 61.807 64.4072 61.6518 64.4143C61.3485 64.4094 61.0428 64.4059 60.7352 64.4024C57.3802 64.3644 53.8158 64.3241 50.9258 62.423C49.291 61.2897 48.5865 59.2835 48.3 57.3721C48.2683 56.7762 47.8086 56.2299 47.1886 56.2751C45.6363 56.2559 44.084 56.2601 42.5317 56.273C41.9899 56.2256 41.4268 56.6277 41.3971 57.2043C41.2728 60.6187 42.5254 64.1564 45.0899 66.4269C48.0891 69.1258 52.1319 70.1665 56.0168 70.6181C60.1484 71.0287 64.3704 71.0052 68.4388 70.0803C71.4969 69.3538 74.5631 68.016 76.6683 65.5582C79.2644 62.5715 79.7747 58.1246 78.6105 54.4042C77.7204 51.6284 75.1768 49.8476 72.5766 48.9316C69.0407 47.6666 65.345 47.1676 61.6476 46.6684C58.7776 46.2809 55.9066 45.8932 53.1085 45.1471C53.0611 45.1319 53.0131 45.1166 52.9649 45.1011C51.8826 44.7557 50.6175 44.3519 50.1433 43.2032C49.618 41.5322 50.0651 39.4572 51.537 38.4294C53.4544 37.0724 55.888 36.8726 58.1511 36.7501C58.232 36.7493 58.3131 36.7485 58.3944 36.7477C61.423 36.717 64.6218 36.6847 67.3905 38.0981C69.2425 39.0658 70.3156 41.0528 70.7585 43.059C70.8406 43.6484 71.2206 44.2631 71.8745 44.2375C72.9292 44.2594 73.9841 44.2553 75.0389 44.2513C75.5257 44.2494 76.0125 44.2475 76.4993 44.2482C77.0288 44.287 77.6087 43.975 77.7121 43.4094C77.6467 39.2164 75.5946 34.9245 71.893 32.8794Z" fill="#539E43"/>
</svg>
