<svg width="100" height="100" viewBox="0 0 100 100" fill="none" xmlns="http://www.w3.org/2000/svg">
<path d="M1 49.8348C1 57.5624 8.22684 64.7764 19.6205 68.8427C17.3453 80.8026 19.2128 90.4422 25.4503 94.1983C31.8618 98.0589 41.4134 95.3866 50.4791 87.1122C59.3162 95.0526 68.2476 98.1775 74.4793 94.4106C80.8845 90.5389 82.8328 80.2455 80.4947 67.9123C92.3618 63.8155 99 57.6641 99 49.8348C99 42.2863 91.7598 35.7559 80.5197 31.7156C83.0368 18.8727 80.904 9.46701 74.4083 5.55573C68.1458 1.78502 59.1107 5.07158 50.1437 13.2199C40.8151 4.5711 31.8692 1.93053 25.3798 5.8532C19.1233 9.63463 17.338 19.4494 19.6205 31.6307C8.61156 35.6386 1 42.3165 1 49.8348Z" fill="white"/>
<path d="M77.5315 35.9295C76.6289 35.6084 75.6937 35.3047 74.7308 35.0174C74.8891 34.3498 75.0344 33.6909 75.1635 33.0432C77.2835 22.4074 75.8974 13.8391 71.1641 11.0181C66.6255 8.31305 59.203 11.1334 51.7066 17.876C50.9857 18.5244 50.2628 19.2108 49.5403 19.9303C49.0588 19.4543 48.5781 18.9943 48.0987 18.5543C40.2422 11.3447 32.3673 8.30649 27.6387 11.1357C23.1045 13.8485 21.7617 21.9035 23.67 31.9831C23.8543 32.9567 24.0697 33.951 24.3133 34.9618C23.1988 35.2888 22.1228 35.6374 21.0933 36.0082C11.8825 39.3272 6 44.5288 6 49.9243C6 55.4967 12.3148 61.086 21.9086 64.475C22.6658 64.7425 23.4514 64.9953 24.261 65.2354C23.9982 66.3287 23.7696 67.4001 23.5777 68.4451C21.7581 78.3498 23.1791 86.2144 27.7013 88.9102C32.3723 91.6941 40.2116 88.8325 47.845 81.9363C48.4484 81.3912 49.0539 80.8131 49.6604 80.2071C50.4467 80.9896 51.2316 81.7302 52.0124 82.4248C59.4063 89.0007 66.709 91.6561 71.227 88.9529C75.8934 86.161 77.4099 77.7124 75.441 67.4334C75.2906 66.6483 75.1157 65.8463 74.9191 65.0301C75.4697 64.8619 76.0101 64.6882 76.5371 64.5077C86.5108 61.0924 93 55.5711 93 49.9243C93 44.5093 86.9278 39.2726 77.5315 35.9295Z" fill="#53C1DE"/>
<path d="M76.0091 61.1123C75.5308 61.2788 75.04 61.4398 74.5399 61.5958C73.4329 57.9103 71.9388 53.9913 70.1104 49.9422C71.8551 45.9897 73.2915 42.1207 74.3675 38.4591C75.2624 38.7314 76.1309 39.0186 76.9678 39.3217C85.0624 42.2521 90 46.5847 90 49.9231C90 53.4791 84.6675 58.0953 76.0091 61.1123ZM72.4164 68.5987C73.2918 73.2486 73.4168 77.4527 72.837 80.7392C72.316 83.6923 71.2683 85.6613 69.9729 86.4498C67.2162 88.1278 61.321 85.9467 54.9632 80.1933C54.2344 79.5338 53.5002 78.8295 52.7638 78.0842C55.2285 75.2495 57.6919 71.9539 60.0961 68.2939C64.3248 67.8993 68.3199 67.2542 71.943 66.3735C72.1214 67.1304 72.2799 67.8728 72.4164 68.5987ZM36.085 86.1598C33.3917 87.1601 31.2466 87.1888 29.9499 86.4025C27.1907 84.729 26.0437 78.2689 27.6083 69.6033C27.7875 68.6109 28.0008 67.5915 28.2467 66.5495C31.83 67.3828 35.7959 67.9824 40.0347 68.3437C42.4551 71.9251 44.9896 75.217 47.5437 78.0994C46.9857 78.666 46.4298 79.2053 45.8771 79.7136C42.4833 82.8332 39.0823 85.0466 36.085 86.1598ZM23.4671 61.0905C19.2018 59.5575 15.6794 57.565 13.2649 55.3907C11.0954 53.4369 10 51.4971 10 49.9231C10 46.5735 14.7487 42.3012 22.6688 39.3973C23.6298 39.045 24.6358 38.7129 25.6798 38.401C26.7744 42.1453 28.2102 46.0601 29.9431 50.0187C28.1878 54.0361 26.7315 58.0133 25.6262 61.8015C24.882 61.5765 24.1609 61.3398 23.4671 61.0905ZM27.6967 30.8141C26.0528 21.9792 27.1446 15.3145 29.892 13.6421C32.8184 11.8605 39.2895 14.4007 46.1099 20.7692C46.5458 21.1763 46.9835 21.6023 47.4224 22.0431C44.8809 24.9129 42.3696 28.1801 39.9707 31.7404C35.8568 32.1414 31.9187 32.7855 28.2981 33.6481C28.0704 32.6851 27.8688 31.7391 27.6967 30.8141ZM65.4289 40.6119C64.5633 39.0397 63.6747 37.5047 62.7689 36.0116C65.5598 36.3826 68.2338 36.8751 70.745 37.4778C69.9911 40.0187 69.0514 42.6753 67.9453 45.3987C67.1519 43.8146 66.3126 42.2173 65.4289 40.6119ZM50.0418 24.8515C51.7654 26.8152 53.4915 29.0076 55.1893 31.3864C53.4785 31.3014 51.7464 31.2572 50.0001 31.2572C48.2702 31.2572 46.551 31.3004 44.8507 31.3839C46.5502 29.0273 48.2912 26.8378 50.0418 24.8515ZM34.5562 40.6391C33.6916 42.2157 32.8679 43.8043 32.0869 45.3958C30.9987 42.6819 30.0678 40.0131 29.3073 37.4363C31.8031 36.8489 34.4645 36.3687 37.2377 36.0047C36.319 37.5116 35.4231 39.0579 34.5562 40.6388V40.6391ZM37.3175 64.1218C34.4523 63.7856 31.7509 63.3301 29.2558 62.759C30.0284 60.1361 30.9799 57.4104 32.0911 54.638C32.8741 56.2284 33.7011 57.8176 34.571 59.3977H34.5711C35.4572 61.0074 36.3752 62.5841 37.3175 64.1218ZM50.1452 75.2717C48.3741 73.2622 46.6075 71.0393 44.8822 68.6483C46.557 68.7174 48.2646 68.7527 50.0001 68.7527C51.783 68.7527 53.5456 68.7105 55.2804 68.6293C53.577 71.0634 51.8571 73.2897 50.1452 75.2717ZM67.981 54.4967C69.1501 57.2991 70.1357 60.0105 70.9183 62.5887C68.3821 63.1972 65.6437 63.6872 62.7586 64.0514C63.6666 62.5381 64.563 60.9767 65.4438 59.3707C66.3349 57.7457 67.181 56.1184 67.981 54.4967ZM62.2069 57.4075C60.8396 59.9007 59.4358 62.2807 58.0106 64.5274C55.4149 64.7225 52.7333 64.8231 50.0001 64.8231C47.2779 64.8231 44.6301 64.7342 42.0803 64.5601C40.5977 62.284 39.1634 59.8969 37.8047 57.4289H37.8051C36.45 54.9676 35.2028 52.4856 34.0727 50.0174C35.2025 47.5435 36.4464 45.0587 37.7937 42.6018L37.7934 42.6023C39.1442 40.1389 40.566 37.7634 42.0348 35.5015C44.6363 35.2947 47.3039 35.1868 49.9999 35.1868H50.0001C52.7082 35.1868 55.3793 35.2956 57.9799 35.5042C59.4264 37.7495 60.8385 40.1173 62.1946 42.581C63.5662 45.0724 64.8261 47.5407 65.9656 49.9616C64.8296 52.424 63.5724 54.9172 62.2069 57.4075ZM69.9156 13.5252C72.8448 15.3016 73.9839 22.4657 72.1435 31.8601C72.0261 32.4595 71.8939 33.0701 71.7504 33.6888C68.1213 32.8082 64.1805 32.153 60.0545 31.7459C57.651 28.1465 55.1602 24.8743 52.6601 22.0413C53.3322 21.3613 54.0035 20.7129 54.6719 20.101C61.1298 14.191 67.1656 11.8576 69.9156 13.5252Z" fill="white"/>
<path d="M50 42C54.4182 42 58 45.5816 58 50C58 54.4182 54.4182 58 50 58C45.5818 58 42 54.4182 42 50C42 45.5816 45.5818 42 50 42Z" fill="#53C1DE"/>
</svg>
