<svg width="100" height="100" viewBox="0 0 100 100" fill="none" xmlns="http://www.w3.org/2000/svg">
<path d="M86.0848 56.3197C82.5884 56.3405 79.5608 57.2247 77.0215 58.5411C76.0839 56.5873 75.1463 54.8801 74.9903 53.6052C74.8145 52.1244 74.5996 51.2193 74.8145 49.4508C75.0291 47.6819 76.0058 45.1728 76.0058 44.9671C75.9861 44.782 75.7907 43.8771 73.779 43.8566C71.7673 43.836 70.0287 44.2679 69.8334 44.8232C69.638 45.3785 69.2474 46.6536 68.9935 47.9698C68.6419 49.9031 64.9697 56.7516 62.8796 60.3507C62.196 58.9522 61.61 57.7182 61.4926 56.7309C61.317 55.2503 61.1019 54.3452 61.317 52.5767C61.5319 50.8078 62.5085 48.2989 62.5085 48.0932C62.489 47.9081 62.2937 47.0032 60.282 46.9826C58.2699 46.9621 56.5316 47.394 56.3363 47.9493C56.141 48.5045 55.9261 49.8208 55.4964 51.0959C55.086 52.371 50.2028 63.8059 48.9331 66.788C48.2885 68.3099 47.7223 69.5233 47.3119 70.3459C46.9017 71.1686 47.2923 70.4076 47.2533 70.4899C46.9017 71.1892 46.7064 71.5799 46.7064 71.5799V71.6007C46.4329 72.1148 46.1399 72.6082 46.003 72.6082C45.9053 72.6082 45.71 71.2303 46.042 69.3384C46.7648 65.3689 48.5227 59.1787 48.5034 58.9524C48.5034 58.8496 48.8353 57.7594 47.3703 57.2043C45.9444 56.649 45.4367 57.5745 45.3193 57.5745C45.2021 57.5745 45.1045 57.9035 45.1045 57.9035C45.1045 57.9035 46.6866 50.9318 42.0769 50.9318C39.186 50.9318 35.2012 54.243 33.2284 57.2662C31.9783 57.986 29.3218 59.5077 26.5091 61.1327C25.4348 61.7496 24.3214 62.4078 23.2666 63.0042L23.0519 62.757C17.4655 56.4843 7.13259 52.042 7.56231 43.6098C7.71858 40.5454 8.73429 32.4628 27.408 22.6733C42.7023 14.6524 54.9495 16.853 57.0784 21.7478C60.106 28.7404 50.5348 41.7382 34.6352 43.6098C28.58 44.3296 25.3959 41.8616 24.5952 40.9362C23.7553 39.9695 23.6381 39.9284 23.3256 40.1135C22.8177 40.4014 23.1303 41.2652 23.3256 41.7794C23.7944 43.075 25.7477 45.3785 29.0683 46.5302C31.9785 47.5379 39.0887 48.0932 47.6832 44.597C57.313 40.6688 64.8331 29.7687 62.6259 20.6578C60.3796 11.3824 45.769 8.3386 31.9592 13.5007C23.7356 16.5857 14.8286 21.3982 8.42176 27.712C0.803911 35.1982 -0.407132 41.7382 0.100725 44.453C1.87842 54.1397 14.5551 60.4536 19.6337 65.1221C19.3798 65.2659 19.1454 65.4098 18.9305 65.5334C16.3912 66.8495 6.7224 72.1763 4.30031 77.8113C1.5657 84.1868 4.73004 88.7733 6.83959 89.3903C13.3636 91.303 20.0439 87.8684 23.6575 82.2127C27.2513 76.557 26.8218 69.2148 25.1615 65.8625L25.1027 65.7391L27.0951 64.5051C28.3844 63.703 29.6541 62.9626 30.7673 62.3249C30.1424 64.1142 29.693 66.2325 29.4588 69.3174C29.1853 72.9373 30.5917 77.6262 32.4473 79.4772C33.2677 80.279 34.2443 80.2998 34.8499 80.2998C36.9985 80.2998 37.9751 78.4281 39.0494 76.1866C40.3777 73.4512 41.5497 70.284 41.5497 70.284C41.5497 70.284 40.0847 78.8602 44.0889 78.8602C45.5539 78.8602 47.0189 76.8652 47.683 75.8369V75.8575C47.683 75.8575 47.7221 75.7958 47.8002 75.6518C47.8822 75.5242 47.9603 75.394 48.0346 75.2613V75.2202C48.6206 74.1507 49.9293 71.7033 51.8826 67.6518C54.4021 62.4279 56.8244 55.8878 56.8244 55.8878C56.8244 55.8878 57.0588 57.492 57.7815 60.1245C58.2111 61.6877 59.1487 63.3945 59.8714 65.0604C59.2854 65.9242 58.9338 66.418 58.9338 66.418L58.9533 66.4386C58.4847 67.0967 57.9571 67.7961 57.4104 68.4952C55.4181 71.0043 53.035 73.8632 52.7225 74.6858C52.3514 75.6523 52.4295 76.3721 53.1522 76.9481C53.6796 77.3595 54.6172 77.4415 55.6134 77.3595C57.4104 77.2359 58.6605 76.763 59.2856 76.4749C60.2622 76.1047 61.3756 75.5494 62.4499 74.7268C64.4032 73.2051 65.5947 71.0456 65.4775 68.1663C65.4189 66.5827 64.9306 65.0197 64.3251 63.5389C64.5009 63.2715 64.6769 63.004 64.8525 62.7163C67.9387 57.9652 70.3217 52.7416 70.3217 52.7416C70.3217 52.7416 70.5561 54.3458 71.2788 56.9783C71.6497 58.3151 72.3922 59.7755 73.0563 61.2151C70.1654 63.7036 68.3489 66.5829 67.7238 68.475C66.5714 71.9713 67.4699 73.5549 69.1693 73.9251C69.9308 74.0896 71.0249 73.7194 71.8451 73.3492C72.8608 72.9996 74.0914 72.403 75.2245 71.5188C77.1778 69.9969 79.0529 67.8786 78.9553 65.0199C78.8967 63.7037 78.5646 62.408 78.1153 61.174C80.5765 60.1045 83.7602 59.4876 87.8037 60.0017C96.4959 61.0712 98.2148 66.7886 97.8829 69.1743C97.5508 71.5602 95.7343 72.8762 95.1286 73.2875C94.523 73.6783 94.3277 73.8225 94.3863 74.1102C94.4644 74.5423 94.7379 74.5215 95.2653 74.4395C95.988 74.3159 99.836 72.4857 99.9923 68.0847C100.227 62.4281 95.1286 56.2582 86.0848 56.3197ZM19.0477 80.1149C16.1763 83.4261 12.133 84.6806 10.4141 83.6112C8.55849 82.48 9.28102 77.6058 12.8167 74.089C14.9653 71.9501 17.7585 69.9757 19.5946 68.7623C20.0048 68.495 20.6299 68.1044 21.3721 67.6312C21.4893 67.5491 21.5674 67.5078 21.5674 67.5078C21.7042 67.4255 21.8604 67.3227 22.0167 67.2199C23.3254 72.238 22.0753 76.6392 19.0477 80.1149ZM40.0456 65.081C39.0494 67.6518 36.9399 74.2535 35.6702 73.8833C34.5762 73.5748 33.9123 68.5772 35.4552 63.6413C36.2365 61.1526 37.8968 58.1913 38.8734 57.0393C40.4558 55.1884 42.1745 54.5714 42.6044 55.3323C43.1123 56.3197 40.6707 63.4768 40.0456 65.081ZM57.3714 73.8011C56.9416 74.0275 56.551 74.1918 56.3752 74.0686C56.2384 73.9864 56.5508 73.6779 56.5508 73.6779C56.5508 73.6779 58.7189 71.2305 59.5784 70.0994C60.0667 69.4414 60.6527 68.6805 61.2777 67.8165V68.0633C61.2779 71.0246 58.5824 72.999 57.3714 73.8011ZM70.7317 70.5927C70.4192 70.3459 70.4584 69.585 71.513 67.1993C71.9234 66.2533 72.8608 64.6696 74.482 63.1683C74.6774 63.7853 74.7947 64.3815 74.775 64.937C74.7557 68.6389 72.2555 70.0169 70.7317 70.5927Z" fill="#CF649A"/>
</svg>
