<svg width="40" height="40" viewBox="0 0 40 40" fill="none" xmlns="http://www.w3.org/2000/svg">
<circle cx="20" cy="20" r="20" fill="white"/>
<path fill-rule="evenodd" clip-rule="evenodd" d="M33 13.3086C32.1177 13.7006 31.1681 13.9646 30.1722 14.0838C31.1889 13.4742 31.9697 12.5095 32.3368 11.36C31.3865 11.9247 30.3314 12.3335 29.2107 12.5551C28.3123 11.5984 27.0316 11 25.6165 11C22.8975 11 20.6928 13.2047 20.6928 15.9237C20.6928 16.3092 20.7368 16.6852 20.8208 17.046C16.7283 16.8412 13.1005 14.8805 10.6719 11.9015C10.2479 12.6287 10.0055 13.4742 10.0055 14.3766C10.0055 16.0845 10.8735 17.5916 12.1958 18.4747C11.3878 18.4491 10.6295 18.2275 9.96473 17.8587V17.9203C9.96473 20.3066 11.663 22.296 13.9141 22.7496C13.5013 22.8616 13.0661 22.9224 12.6174 22.9224C12.2998 22.9224 11.991 22.8912 11.6902 22.8336C12.3166 24.7895 14.1357 26.2134 16.2899 26.2534C14.6052 27.5733 12.4822 28.3612 10.1751 28.3612C9.77675 28.3612 9.38477 28.338 9 28.2916C11.1791 29.6884 13.7669 30.5043 16.5475 30.5043C25.6037 30.5043 30.5562 23.0016 30.5562 16.4956C30.5562 16.282 30.5522 16.0693 30.5418 15.8589C31.5049 15.1629 32.34 14.2958 33 13.3086Z" fill="black"/>
</svg>
